# xmcd
#
# Track frame offsets:
#	150
#	11059
#	20330
#	30578
#	40183
#	50513
#	61542
#	71326
#	80857
#	89401
#	101589
#	111726
#	122269
#	131351
#
# Disc length: 1883 seconds
#
# Revision: 1
# Processed by: cddbd v1.5.2PL0 Copyright (c) Steve Scherf et al.
# Submitted via: audiograbber 1.83.01
#
DISCID=b107590e
DTITLE=Little Richard - Rips It Up CD 3
DYEAR=2009
DGENRE=R&B
TTITLE0=Lucille
TTITLE1=Jenny, Jenny
TTITLE2=Miss Ann
TTITLE3=Oh Why?
TTITLE4=Keep A Knockin'
TTITLE5=Can't Believe You Wanna Leave
TTITLE6=Good Golly, Miss Molly
TTITLE7=Hey- Hey- Hey- Hey
TTITLE8=Ooh! My Soul
TTITLE9=True, Fine Mama
TTITLE10=Baby Face
TTITLE11=Boo Hoo Hoo Hoo
TTITLE12=She Knows How To Rock
TTITLE13=Early One Morning
EXTD=
EXTT0=
EXTT1=
EXTT2=
EXTT3=
EXTT4=
EXTT5=
EXTT6=
EXTT7=
EXTT8=
EXTT9=
EXTT10=
EXTT11=
EXTT12=
EXTT13=
PLAYORDER=
